<?xml version="1.0" encoding="UTF-8"?>
<svg width="512" height="512" version="1.1" viewBox="0 0 512 512" xmlns="http://www.w3.org/2000/svg">
	<path d="m66.85 24.816c-23.287 0-42.034 18.747-42.034 42.034v378.3c0 23.287 18.747 42.034 42.034 42.034h378.3c23.287 0 42.034-18.747 42.034-42.034v-378.3c0-23.287-18.747-42.034-42.034-42.034z"
	      fill="#fff"/>
	<circle cx="256" cy="256" r="144.55" fill="#333"/>
	<path d="m256 125.91a130.09 130.09 0 0 0-130.09 130.09 130.09 130.09 0 0 0 130.09 130.09 130.09 130.09 0 0 0 130.09-130.09 130.09 130.09 0 0 0-130.09-130.09zm0 21.682a108.41 108.41 0 0 1 108.41 108.41 108.41 108.41 0 0 1-108.41 108.41 108.41 108.41 0 0 1-108.41-108.41 108.41 108.41 0 0 1 108.41-108.41z"
	      fill="#fff"/>
	<circle cx="256" cy="256" r="36.137" fill="#fff"/>
</svg>
